<svg width="61" height="74" viewBox="0 0 61 74" fill="none" xmlns="http://www.w3.org/2000/svg">
<path d="M2.2461 23.4269L2.24611 23.4269C3.92841 16.8755 7.00115 10.8921 12.2055 6.77477L12.2055 6.77473C26.1787 -4.283 47.4886 -0.295765 56.1143 15.3481C59.028 20.633 60.349 26.8151 59.6929 32.8161C58.7009 41.8913 53.2038 50.3705 45.3233 54.9812C42.0839 56.8763 37.6466 57.9648 33.0868 58.9857C32.6778 59.0773 32.2677 59.1683 31.8576 59.2594C27.7372 60.1742 23.608 61.091 20.4247 62.5766C14.9016 65.154 12.627 67.2752 8.24823 71.3586C7.82258 71.7556 7.37705 72.1711 6.90672 72.6073C3.58792 62.724 1.02041 52.5393 0.57631 42.1706C0.320648 36.2001 0.666033 29.5782 2.2461 23.4269Z" fill="#ECEBEB" stroke="#61B3FB"/>
</svg>
