<svg width="45" height="58" viewBox="0 0 45 58" fill="none" xmlns="http://www.w3.org/2000/svg">
<g clip-path="url(#clip0_505_290)">
<mask id="mask0_505_290" style="mask-type:luminance" maskUnits="userSpaceOnUse" x="0" y="0" width="45" height="58">
<path d="M45 0H0V58H45V0Z" fill="white"/>
</mask>
<g mask="url(#mask0_505_290)">
<path d="M22.4746 57.9316C22.0432 54.5721 21.8318 51.1614 21.1297 47.8618C20.047 42.7926 17.8224 38.1424 14.1936 34.4581C11.7068 31.9192 8.24718 30.902 4.8468 30.0386C3.40883 29.6796 1.94549 29.4488 0 29.0641C1.42951 28.6367 2.41071 28.252 3.43421 28.0554C13.2547 26.2175 18.0761 21.2168 20.7491 11.5487C21.7895 7.80457 22.7284 4.00059 22.6184 0C23.4897 2.10287 23.5996 4.30833 23.9633 6.47959C25.0714 12.9763 26.7039 19.2763 31.9652 23.8155C34.3421 25.8671 37.1842 26.833 40.2547 27.2604C41.8449 27.4827 43.4098 27.8674 44.9915 28.1836C44.7885 28.7478 44.3064 28.7478 43.8665 28.8504C40.6353 29.5941 37.6241 30.9105 34.5959 32.2441C31.39 33.6545 29.7406 36.4926 27.9981 39.2109C25.1137 43.6987 23.8195 48.708 23.532 54.0336C23.4558 55.3671 23.1344 56.6921 22.9314 58.0171C22.7791 57.9915 22.6184 57.9658 22.4662 57.9487M34.1137 29.0385C29.2077 27.0467 25.5705 22.405 22.8468 14.7458C20.563 20.55 18 26.0893 11.563 28.6025C14.7857 30.3122 16.5959 33.1331 18.4991 35.8771C20.3853 38.5869 21.6034 41.6301 22.7622 44.7245C24.3778 37.8517 27.6513 32.3808 34.1137 29.0385Z" fill="#61B3FB"/>
</g>
</g>
<defs>
<clipPath id="clip0_505_290">
<rect width="45" height="58" fill="white"/>
</clipPath>
</defs>
</svg>
