<svg width="139" height="139" viewBox="0 0 139 139" fill="none" xmlns="http://www.w3.org/2000/svg">
<path d="M132.655 95.6051C138.347 81.438 139.599 65.4669 135.432 50.7803C128.034 24.7092 103.989 4.189 77.0801 0.980605C30.4577 -4.577 -7.91973 38.9956 2.10497 84.5204L1.61707 84.6278L2.10497 84.5204C5.60632 100.423 14.9199 114.977 27.8647 124.846C24.3337 107.679 20.8515 90.3571 20.3478 72.787L20.8476 72.7727L20.3478 72.787C19.86 55.7543 22.5715 37.6485 33.2345 24.1937L33.6264 24.5042L33.2345 24.1937C43.0602 11.7967 59.1696 4.78823 74.9541 5.67458C90.7389 6.56095 105.816 15.188 114.887 28.1253L114.478 28.4123L114.887 28.1253C123.045 39.7621 126.344 54.7397 123.625 68.6947C123.625 68.6948 123.625 68.6948 123.625 68.6948L123.134 68.5992C120.443 82.4182 111.778 95.0059 99.7281 102.286C91.4448 107.29 81.9831 109.732 72.565 112.162C70.4026 112.72 68.2426 113.278 66.0996 113.865C54.7888 116.968 43.184 121.375 35.5738 130.269L132.655 95.6051ZM132.655 95.6051L132.654 95.605C128.246 106.573 121.184 116.448 111.93 123.802L112.242 124.194L111.93 123.802C90.8761 140.538 59.6879 143.27 36.0229 130.513L132.655 95.6051Z" fill="white" stroke="#141E39"/>
</svg>
