<svg width="40" height="40" viewBox="0 0 40 40" fill="none" xmlns="http://www.w3.org/2000/svg">
<path d="M32.5781 29.9219C32.7529 30.0961 32.8916 30.3031 32.9862 30.531C33.0809 30.7589 33.1296 31.0032 33.1296 31.25C33.1296 31.4968 33.0809 31.7411 32.9862 31.969C32.8916 32.197 32.7529 32.4039 32.5781 32.5781C32.2243 32.9274 31.7471 33.1232 31.25 33.1232C30.7528 33.1232 30.2757 32.9274 29.9218 32.5781L20 22.6563L10.0781 32.5781C9.72426 32.9274 9.24712 33.1232 8.74997 33.1232C8.25281 33.1232 7.77567 32.9274 7.42184 32.5781C7.24704 32.4039 7.10835 32.197 7.01371 31.969C6.91908 31.7411 6.87036 31.4968 6.87036 31.25C6.87036 31.0032 6.91908 30.7589 7.01371 30.531C7.10835 30.3031 7.24704 30.0961 7.42184 29.9219L17.3437 20L7.42184 10.0781C7.0696 9.7259 6.87171 9.24816 6.87171 8.75002C6.87171 8.50336 6.9203 8.25912 7.01469 8.03124C7.10908 7.80336 7.24743 7.5963 7.42184 7.42189C7.59625 7.24748 7.80331 7.10913 8.03119 7.01474C8.25907 6.92035 8.50331 6.87177 8.74997 6.87177C9.24811 6.87177 9.72585 7.06965 10.0781 7.42189L20 17.3438L29.9218 7.42189C30.2741 7.06965 30.7518 6.87177 31.25 6.87177C31.7481 6.87177 32.2259 7.06965 32.5781 7.42189C32.9303 7.77413 33.1282 8.25187 33.1282 8.75002C33.1282 9.24816 32.9303 9.7259 32.5781 10.0781L22.6562 20L32.5781 29.9219Z" fill="#141E39"/>
</svg>
