<svg width="19" height="24" viewBox="0 0 19 24" fill="none" xmlns="http://www.w3.org/2000/svg">
<g clip-path="url(#clip0_505_15)">
<mask id="mask0_505_15" style="mask-type:luminance" maskUnits="userSpaceOnUse" x="0" y="0" width="19" height="24">
<path d="M18.7826 0H0V24H18.7826V0Z" fill="white"/>
</mask>
<g mask="url(#mask0_505_15)">
<path d="M9.38071 23.9717C9.20065 22.5816 9.11239 21.1702 8.81935 19.8049C8.36744 17.7073 7.4389 15.7831 5.92429 14.2585C4.8863 13.208 3.4423 12.787 2.02301 12.4298C1.42282 12.2812 0.81203 12.1857 0 12.0265C0.596666 11.8497 1.00621 11.6905 1.43341 11.6091C5.5324 10.8486 7.54482 8.77937 8.66048 4.77878C9.09474 3.22948 9.48663 1.65542 9.44073 0C9.80438 0.870155 9.85028 1.78276 10.0021 2.68121C10.4646 5.36949 11.146 7.97642 13.342 9.85468C14.3341 10.7036 15.5204 11.1033 16.802 11.2802C17.4657 11.3721 18.1189 11.5313 18.7791 11.6622C18.6943 11.8957 18.4931 11.8957 18.3095 11.9381C16.9608 12.2458 15.704 12.7906 14.44 13.3424C13.1019 13.926 12.4135 15.1004 11.6862 16.2252C10.4822 18.0822 9.94207 20.155 9.82203 22.3587C9.79026 22.9105 9.6561 23.4588 9.57136 24.0071C9.50781 23.9965 9.44073 23.9859 9.37718 23.9788M14.2388 12.0159C12.191 11.1917 10.6729 9.27104 9.53606 6.1017C8.5828 8.50346 7.51304 10.7956 4.82628 11.8355C6.17143 12.543 6.92697 13.7102 7.72135 14.8457C8.50866 15.967 9.01706 17.2262 9.50075 18.5067C10.1751 15.6628 11.5414 13.399 14.2388 12.0159Z" fill="white"/>
</g>
</g>
<defs>
<clipPath id="clip0_505_15">
<rect width="18.7826" height="24" fill="white"/>
</clipPath>
</defs>
</svg>
